<svg width="52" height="46" viewBox="0 0 52 46" fill="none" xmlns="http://www.w3.org/2000/svg">
<path d="M28.4418 9.72904H22.3721" stroke="#5E4A40" stroke-width="1.5" stroke-linecap="square" stroke-linejoin="round"/>
<path d="M24.6881 13.8931H22.3721" stroke="#5E4A40" stroke-width="1.5" stroke-linecap="square" stroke-linejoin="round"/>
<rect x="17.627" y="3.25" width="16.7465" height="18.5" stroke="#5E4A40" stroke-width="1.5" stroke-linecap="square"/>
<path d="M25.672 41.2363H15.9923V40.1816H25.672V41.2363ZM21.4181 40.4805H20.129V37.7207H21.4181V40.4805ZM21.2189 33.373C21.2189 34.1113 21.0294 34.8027 20.6505 35.4473C20.2755 36.0918 19.754 36.6367 19.0861 37.082C18.4181 37.5273 17.6662 37.8301 16.8302 37.9902L16.2619 36.9062C16.9884 36.7852 17.6427 36.5469 18.2247 36.1914C18.8068 35.832 19.2599 35.4062 19.5841 34.9141C19.9122 34.418 20.0763 33.9043 20.0763 33.373V32.5996H21.2189V33.373ZM21.4533 33.373C21.4533 33.9043 21.6193 34.418 21.9513 34.9141C22.2833 35.4102 22.7404 35.8359 23.3224 36.1914C23.9044 36.5469 24.5607 36.7852 25.2912 36.9062L24.7287 37.9902C23.8849 37.8262 23.129 37.5254 22.4611 37.0879C21.797 36.6465 21.2755 36.1055 20.8966 35.4648C20.5177 34.8203 20.3283 34.123 20.3283 33.373V32.5996H21.4533V33.373ZM30.0428 33.4609C30.0428 34.1367 29.9237 34.7715 29.6854 35.3652C29.4471 35.959 29.1014 36.4766 28.6483 36.918C28.1952 37.3555 27.6502 37.6836 27.0135 37.9023L26.3573 36.877C26.912 36.6895 27.3846 36.4199 27.7752 36.0684C28.1698 35.7168 28.4647 35.3164 28.66 34.8672C28.8553 34.418 28.953 33.9492 28.953 33.4609V32.4473H30.0428V33.4609ZM30.3006 33.4609C30.3006 33.9375 30.3963 34.3887 30.5877 34.8145C30.7792 35.2402 31.0663 35.6172 31.4491 35.9453C31.8358 36.2734 32.3026 36.5254 32.8495 36.7012L32.1991 37.7266C31.5663 37.5156 31.0252 37.2012 30.576 36.7832C30.1268 36.3652 29.787 35.873 29.5565 35.3066C29.326 34.7402 29.2108 34.125 29.2108 33.4609V32.4473H30.3006V33.4609ZM35.1639 42.5312H33.8573V39.8184H27.9452V38.7637H35.1639V42.5312ZM35.1639 38.2891H33.8573V31.9492H35.1639V38.2891Z" fill="#5E4A40"/>
</svg>
