<svg width="50" height="30" viewBox="0 0 50 30" fill="none" xmlns="http://www.w3.org/2000/svg">
<g clip-path="url(#clip0_1714_31308)">
<path d="M13.8811 19.3354C18.5134 19.3354 23.2246 22.1511 25.1619 26.125C25.2446 26.2948 25.5023 26.2948 25.585 26.125C27.5223 22.1511 32.2334 19.3354 36.8658 19.3354H49.6246C49.7914 19.3354 49.8949 19.5129 49.8108 19.6537L47.7548 23.085C47.716 23.1495 47.6453 23.1892 47.569 23.1892H37.82C34.04 23.1892 29.5992 26.1248 29.4333 29.7883C29.4281 29.9048 29.3321 29.9999 29.213 29.9999H21.5339C21.4149 29.9999 21.3188 29.9048 21.3136 29.7883C21.1477 26.1248 16.7069 23.1892 12.9269 23.1892H3.17795C3.10153 23.1892 3.03082 23.1495 2.99212 23.085L0.936259 19.6537C0.851875 19.5129 0.955474 19.3354 1.1221 19.3354H13.8811Z" fill="white"/>
<path d="M14.2507 18.0997C14.1317 18.0997 14.0352 18.0051 14.0352 17.8884V0.211267C14.0352 0.0945875 14.1317 0 14.2507 0H17.9384C18.0574 0 18.1539 0.0945879 18.1539 0.211268V6.82935C18.1539 6.94601 18.2504 7.04062 18.3694 7.04062H19.6646C19.7837 7.04062 19.8802 6.94601 19.8802 6.82935V0.211268C19.8802 0.0945875 19.9767 0 20.0957 0H20.2452C22.335 0 24.0292 1.85834 24.0292 4.15072V17.9548C24.0292 18.0715 23.9327 18.1661 23.8137 18.1661H20.0957C19.9767 18.1661 19.8802 18.0715 19.8802 17.9548V11.0711C19.8802 10.9544 19.7837 10.8598 19.6646 10.8598H18.3694C18.2504 10.8598 18.1539 10.9544 18.1539 11.0711V17.8884C18.1539 18.0051 18.0574 18.0997 17.9384 18.0997H14.2507Z" fill="white"/>
<path d="M13.0742 13.7016C13.1325 13.5888 13.0765 13.4514 12.9568 13.4043C9.7983 12.1618 8.52666 9.37027 8.54067 6.5787C8.54067 6.54203 8.57101 6.51228 8.60842 6.51228H12.1369C12.2559 6.51228 12.3524 6.41768 12.3524 6.30101V3.00224C12.3524 2.88556 12.2559 2.79097 12.1369 2.79097H8.75618C8.63713 2.79097 8.54067 2.69638 8.54067 2.5797V0.211268C8.54067 0.0945879 8.44416 0 8.32515 0H4.85842C4.73937 0 4.64291 0.0945879 4.64291 0.211268V2.5797C4.64291 2.69638 4.5464 2.79097 4.42739 2.79097H1.01797C0.898946 2.79097 0.802455 2.88556 0.802455 3.00224V6.30101C0.802455 6.41768 0.898946 6.51228 1.01797 6.51228H4.57511C4.61256 6.51228 4.64291 6.54203 4.64291 6.5787C4.61485 9.58597 3.36574 12.4819 0.210905 13.928C0.0978704 13.9798 0.0487178 14.1135 0.106157 14.2221L1.77074 17.3691C1.82269 17.4673 1.9434 17.5098 2.04614 17.464C4.12078 16.5399 5.55437 14.9719 6.46347 13.0428C6.54278 12.8744 6.79424 12.87 6.88041 13.0351C7.78554 14.7692 9.18347 16.1619 11.1675 16.9728C11.2701 17.0147 11.3876 16.9706 11.4378 16.8734L13.0742 13.7016Z" fill="white"/>
<path fill-rule="evenodd" clip-rule="evenodd" d="M49.1687 15.5023C49.1687 15.619 49.0721 15.7136 48.9531 15.7136H40.8176C40.6986 15.7136 40.6021 15.8081 40.6021 15.9248V20.8614C40.6021 20.9781 40.5056 21.0727 40.3865 21.0727H36.1391C36.0201 21.0727 35.9236 20.9781 35.9236 20.8614V15.9248C35.9236 15.8081 35.8271 15.7136 35.7081 15.7136H27.5397C27.4207 15.7136 27.3242 15.619 27.3242 15.5023V4.15225C27.3242 1.85904 29.2282 2.14789e-05 31.577 0H48.9531C49.0721 0 49.1687 0.0945879 49.1687 0.211268V15.5023ZM32.0028 11.6344C32.0028 11.7511 32.0993 11.8457 32.2183 11.8457H44.2415C44.3605 11.8457 44.457 11.7511 44.457 11.6344V4.18287C44.457 4.06619 44.3605 3.9716 44.2415 3.9716H32.2183C32.0993 3.9716 32.0028 4.06619 32.0028 4.18287V11.6344Z" fill="white"/>
</g>
<defs>
<clipPath id="clip0_1714_31308">
<rect width="50" height="30" fill="white"/>
</clipPath>
</defs>
</svg>
