<svg width="52" height="46" viewBox="0 0 52 46" fill="none" xmlns="http://www.w3.org/2000/svg">
<path fill-rule="evenodd" clip-rule="evenodd" d="M32.5481 19.0229C30.693 20.8781 28.2512 21.7765 25.8247 21.7241C22.5295 21.6528 16.75 21.7046 16.75 21.7046C16.75 21.7046 16.8007 15.8573 16.7982 12.5048C16.7964 10.1423 17.696 7.78029 19.5016 5.97503C23.101 2.37436 28.9487 2.37436 32.5481 5.9741C36.1539 9.58033 36.1474 15.4232 32.5481 19.0229Z" stroke="#5E4A40" stroke-width="1.5" stroke-linecap="round"/>
<path d="M22.3155 12.8804H22.2168" stroke="#5E4A40" stroke-width="1.5" stroke-linecap="square"/>
<path d="M26.0499 12.8814H25.9512" stroke="#5E4A40" stroke-width="1.5" stroke-linecap="square"/>
<path d="M29.7823 12.8804H29.6836" stroke="#5E4A40" stroke-width="1.5" stroke-linecap="square"/>
<path d="M7.23298 34.3281C7.23298 34.9023 7.14314 35.4434 6.96345 35.9512C6.78767 36.4551 6.52205 36.9004 6.16658 37.2871C5.81111 37.6699 5.3697 37.9648 4.84236 38.1719L4.22713 37.2051C4.66463 37.0332 5.03377 36.7988 5.33455 36.502C5.63533 36.2051 5.86189 35.8711 6.01423 35.5C6.16658 35.125 6.24275 34.7344 6.24275 34.3281V33.9707H7.23298V34.3281ZM7.47322 34.3281C7.47322 34.7031 7.54939 35.0684 7.70173 35.4238C7.85798 35.7754 8.0865 36.0918 8.38728 36.373C8.69197 36.6504 9.05916 36.8613 9.48884 37.0059L8.89705 37.9902C8.3697 37.7988 7.92634 37.5195 7.56697 37.1523C7.2115 36.7852 6.94588 36.3594 6.77009 35.875C6.59431 35.3867 6.50642 34.8711 6.50642 34.3281V33.9707H7.47322V34.3281ZM9.19588 34.2461H4.49666V33.2207H9.19588V34.2461ZM7.47322 33.6836H6.24275V32.0664H7.47322V33.6836ZM13.2623 38.4355H12.0201V31.9609H13.2623V38.4355ZM12.3834 35.7344H10.567V34.6797H12.3834V35.7344ZM11.0006 38.4004H9.76423V32.1367H11.0006V38.4004ZM13.2623 42.5312H11.9732V39.9766H6.00838V38.9219H13.2623V42.5312ZM26.2227 42.5605H24.9043V31.9492H26.2227V42.5605ZM20.5156 32.7227C21.0469 32.7227 21.5215 32.877 21.9395 33.1855C22.3574 33.4902 22.6836 33.9258 22.918 34.4922C23.1523 35.0547 23.2695 35.7109 23.2695 36.4609C23.2695 37.2148 23.1523 37.875 22.918 38.4414C22.6836 39.0039 22.3574 39.4395 21.9395 39.748C21.5215 40.0566 21.0469 40.2109 20.5156 40.2109C19.9805 40.2109 19.5039 40.0566 19.0859 39.748C18.668 39.4395 18.3398 39.0039 18.1016 38.4414C17.8672 37.875 17.75 37.2148 17.75 36.4609C17.75 35.7109 17.8672 35.0547 18.1016 34.4922C18.3398 33.9258 18.668 33.4902 19.0859 33.1855C19.5039 32.877 19.9805 32.7227 20.5156 32.7227ZM20.5156 33.8945C20.2188 33.8906 19.9551 33.9922 19.7246 34.1992C19.498 34.4023 19.3223 34.6973 19.1973 35.084C19.0723 35.4707 19.0098 35.9297 19.0098 36.4609C19.0098 36.9922 19.0723 37.4531 19.1973 37.8438C19.3223 38.2305 19.498 38.5254 19.7246 38.7285C19.9551 38.9277 20.2188 39.0273 20.5156 39.0273C20.8125 39.0273 21.0742 38.9277 21.3008 38.7285C21.5273 38.5254 21.7031 38.2305 21.8281 37.8438C21.9531 37.4531 22.0156 36.9922 22.0156 36.4609C22.0156 35.9297 21.9531 35.4707 21.8281 35.084C21.7031 34.6973 21.5273 34.4023 21.3008 34.1992C21.0781 33.9922 20.8164 33.8906 20.5156 33.8945ZM30.6169 32.7227C31.1482 32.7227 31.6208 32.877 32.0349 33.1855C32.4489 33.4902 32.7751 33.9258 33.0134 34.4922C33.2517 35.0547 33.3708 35.7109 33.3708 36.4609C33.3708 37.2148 33.2517 37.875 33.0134 38.4414C32.7751 39.0039 32.447 39.4395 32.029 39.748C31.615 40.0566 31.1443 40.2109 30.6169 40.2109C30.0857 40.2109 29.611 40.0566 29.1931 39.748C28.7751 39.4395 28.4489 39.0039 28.2146 38.4414C27.9802 37.875 27.863 37.2148 27.863 36.4609C27.863 35.7109 27.9802 35.0547 28.2146 34.4922C28.4489 33.9258 28.7751 33.4902 29.1931 33.1855C29.611 32.877 30.0857 32.7227 30.6169 32.7227ZM30.6169 33.8945C30.32 33.8906 30.0564 33.9922 29.8259 34.1992C29.5993 34.4062 29.4235 34.7031 29.2985 35.0898C29.1775 35.4727 29.1169 35.9297 29.1169 36.4609C29.1169 36.9922 29.1775 37.4531 29.2985 37.8438C29.4235 38.2305 29.6013 38.5254 29.8318 38.7285C30.0622 38.9277 30.3239 39.0273 30.6169 39.0273C30.9138 39.0273 31.1755 38.9277 31.4021 38.7285C31.6325 38.5254 31.8083 38.2305 31.9294 37.8438C32.0505 37.4531 32.111 36.9922 32.111 36.4609C32.111 35.9258 32.0505 35.4668 31.9294 35.084C31.8083 34.6973 31.6325 34.4023 31.4021 34.1992C31.1755 33.9922 30.9138 33.8906 30.6169 33.8945ZM37.6364 35.5762H35.7146V34.4805H37.6364V35.5762ZM37.6364 38.6816H35.7146V37.6094H37.6364V38.6816ZM36.0661 42.5312H34.7653V31.9492H36.0661V42.5312ZM46.976 42.5312H45.6576V31.9492H46.976V42.5312ZM43.8178 33.0742C43.8178 34.1797 43.6576 35.1934 43.3373 36.1152C43.0209 37.0332 42.4994 37.8789 41.7729 38.6523C41.0463 39.4219 40.0834 40.0918 38.8842 40.6621L38.1928 39.6191C39.2123 39.1348 40.0405 38.584 40.6772 37.9668C41.3139 37.3496 41.7807 36.6562 42.0776 35.8867C42.3744 35.1172 42.5229 34.2539 42.5229 33.2969V33.0742H43.8178ZM43.1088 34.1055H38.7319V33.0742H43.1088V34.1055Z" fill="#5E4A40"/>
</svg>
