<svg width="52" height="46" viewBox="0 0 52 46" fill="none" xmlns="http://www.w3.org/2000/svg">
<path d="M23.5141 15.2071C26.6415 15.1991 29.3007 16.635 30.2782 19.7261C28.308 20.9272 25.9889 21.3898 23.5141 21.3837C21.0392 21.3898 18.7202 20.9272 16.75 19.7261C17.7286 16.6317 20.3833 15.1991 23.5141 15.2071Z" stroke="#BBBBBB" stroke-width="1.5" stroke-linecap="square"/>
<path d="M30.0852 18.7321C31.975 18.7367 33.7458 18.3835 35.2502 17.4664C34.5039 15.106 32.4733 14.0095 30.0852 14.0157C28.5809 14.0118 27.2205 14.4435 26.2324 15.3529" stroke="#BBBBBB" stroke-width="1.5" stroke-linecap="square"/>
<circle cx="23.5142" cy="7.8521" r="4.23687" stroke="#BBBBBB" stroke-width="1.5" stroke-linecap="square"/>
<path d="M27.7136 6.17014C28.3039 5.55148 29.1364 5.16602 30.059 5.16602C31.8491 5.16602 33.3003 6.61718 33.3003 8.40729C33.3003 10.1974 31.8491 11.6486 30.059 11.6486C28.9647 11.6486 27.9971 11.1063 27.4102 10.2757" stroke="#BBBBBB" stroke-width="1.5" stroke-linecap="square"/>
<path d="M25.672 41.2598H15.9923V40.1875H25.672V41.2598ZM21.4474 40.4512H20.1642V37.6738H21.4474V40.4512ZM24.5529 37.8789H17.0529V32.7754H24.5529V37.8789ZM18.3361 36.8535H23.2755V33.8125H18.3361V36.8535ZM35.1639 37.9668H33.8573V31.9609H35.1639V37.9668ZM35.1639 42.4082H28.1444V38.4766H35.1639V42.4082ZM29.4276 41.3594H33.8866V39.5137H29.4276V41.3594ZM29.3924 32.4707C29.9354 32.4707 30.4217 32.5762 30.8514 32.7871C31.285 32.998 31.6249 33.2969 31.871 33.6836C32.121 34.0664 32.246 34.5039 32.246 34.9961C32.246 35.4727 32.121 35.9023 31.871 36.2852C31.6249 36.668 31.285 36.9668 30.8514 37.1816C30.4217 37.3965 29.9354 37.5039 29.3924 37.5039C28.8495 37.5039 28.3612 37.3965 27.9276 37.1816C27.4979 36.9668 27.1581 36.668 26.9081 36.2852C26.662 35.9023 26.5389 35.4727 26.5389 34.9961C26.5389 34.5039 26.662 34.0664 26.9081 33.6836C27.1581 33.2969 27.4979 32.998 27.9276 32.7871C28.3612 32.5762 28.8495 32.4707 29.3924 32.4707ZM29.3924 33.5664C29.0838 33.5625 28.8104 33.6191 28.5721 33.7363C28.3338 33.8496 28.1463 34.0156 28.0096 34.2344C27.8768 34.4531 27.8104 34.707 27.8104 34.9961C27.8104 35.2734 27.8768 35.5195 28.0096 35.7344C28.1463 35.9453 28.3338 36.1094 28.5721 36.2266C28.8104 36.3438 29.0838 36.4023 29.3924 36.4023C29.6971 36.4023 29.9667 36.3438 30.201 36.2266C30.4393 36.1094 30.6249 35.9453 30.7577 35.7344C30.8905 35.5195 30.9569 35.2734 30.9569 34.9961C30.9569 34.707 30.8905 34.4531 30.7577 34.2344C30.6288 34.0156 30.4452 33.8496 30.2069 33.7363C29.9686 33.6191 29.6971 33.5625 29.3924 33.5664Z" fill="#BBBBBB"/>
</svg>
