<svg width="52" height="46" viewBox="0 0 52 46" fill="none" xmlns="http://www.w3.org/2000/svg">
<path d="M15.9336 11.3755L25.9998 2.75L36.0659 11.3755" stroke="#BBBBBB" stroke-width="1.5" stroke-linecap="square"/>
<path d="M18.0928 10.1592V21.2501H33.9103V10.1592" stroke="#BBBBBB" stroke-width="1.5" stroke-linecap="square"/>
<path d="M25.9998 12.7048L25.9998 16.1132" stroke="#BBBBBB" stroke-width="1.5" stroke-linecap="square"/>
<path d="M12.4125 35.8281C12.4125 36.4023 12.3227 36.9434 12.143 37.4512C11.9672 37.9551 11.7016 38.4004 11.3461 38.7871C10.9907 39.1699 10.5492 39.4648 10.0219 39.6719L9.40667 38.7051C9.84417 38.5332 10.2133 38.2988 10.5141 38.002C10.8149 37.7051 11.0414 37.3711 11.1938 37C11.3461 36.625 11.4223 36.2344 11.4223 35.8281V35.4707H12.4125V35.8281ZM12.6528 35.8281C12.6528 36.2031 12.7289 36.5684 12.8813 36.9238C13.0375 37.2754 13.266 37.5918 13.5668 37.873C13.8715 38.1504 14.2387 38.3613 14.6684 38.5059L14.0766 39.4902C13.5492 39.2988 13.1059 39.0195 12.7465 38.6523C12.391 38.2852 12.1254 37.8594 11.9496 37.375C11.7739 36.8867 11.686 36.3711 11.686 35.8281V35.4707H12.6528V35.8281ZM14.3754 35.7461H9.6762V34.7207H14.3754V35.7461ZM12.6528 35.1836H11.4223V33.5664H12.6528V35.1836ZM18.4418 39.9355H17.1996V33.4609H18.4418V39.9355ZM17.5629 37.2344H15.7465V36.1797H17.5629V37.2344ZM16.1801 39.9004H14.9438V33.6367H16.1801V39.9004ZM18.4418 44.0312H17.1528V41.4766H11.1879V40.4219H18.4418V44.0312ZM29.4279 42.7598H19.7482V41.6875H29.4279V42.7598ZM25.2033 41.9512H23.9201V39.1738H25.2033V41.9512ZM28.3087 39.3789H20.8087V34.2754H28.3087V39.3789ZM22.0919 38.3535H27.0314V35.3125H22.0919V38.3535ZM41.4332 43.9082H34.0914V40.832H41.4332V43.9082ZM35.3746 42.9238H40.1617V41.8105H35.3746V42.9238ZM42.0777 35.2422H33.4234V34.2578H42.0777V35.2422ZM37.7769 35.5645C38.9175 35.5684 39.7867 35.6973 40.3843 35.9512C40.9859 36.2012 41.2867 36.5742 41.2867 37.0703C41.2867 37.5664 40.9859 37.9434 40.3843 38.2012C39.7867 38.4551 38.9175 38.582 37.7769 38.582C36.6402 38.582 35.7672 38.4551 35.1578 38.2012C34.5523 37.9434 34.2496 37.5664 34.2496 37.0703C34.2496 36.5742 34.5523 36.2012 35.1578 35.9512C35.7672 35.6973 36.6402 35.5684 37.7769 35.5645ZM37.7769 36.4492C37.2847 36.4492 36.8843 36.4727 36.5758 36.5195C36.2672 36.5625 36.0347 36.6289 35.8785 36.7188C35.7222 36.8086 35.6441 36.9258 35.6441 37.0703C35.6441 37.2031 35.7222 37.3164 35.8785 37.4102C36.0386 37.5039 36.275 37.5742 36.5875 37.6211C36.9 37.668 37.2965 37.6934 37.7769 37.6973C38.2574 37.6934 38.6519 37.668 38.9605 37.6211C39.273 37.5742 39.5074 37.5039 39.6636 37.4102C39.8199 37.3164 39.898 37.2031 39.898 37.0703C39.898 36.9258 39.8199 36.8086 39.6636 36.7188C39.5074 36.6289 39.275 36.5625 38.9664 36.5195C38.6617 36.4727 38.2652 36.4492 37.7769 36.4492ZM38.4215 34.9434H37.1207V33.3379H38.4215V34.9434ZM42.5992 40.2051H32.9547V39.1797H42.5992V40.2051ZM38.4215 39.748H37.1207V38.248H38.4215V39.748Z" fill="#BBBBBB"/>
</svg>
