<svg width="52" height="46" viewBox="0 0 52 46" fill="none" xmlns="http://www.w3.org/2000/svg">
<g clip-path="url(#clip0_1590_13682)">
<circle cx="26.0006" cy="9.42829" r="3.53571" stroke="#BBBBBB" stroke-width="1.5"/>
<path d="M25.999 16.1787C30.4835 16.1787 33.8203 19.0608 33.8203 22.2861C33.8201 25.5114 30.4834 28.3926 25.999 28.3926C21.5147 28.3925 18.1779 25.5113 18.1777 22.2861C18.1777 19.0608 21.5146 16.1788 25.999 16.1787Z" stroke="#BBBBBB" stroke-width="1.5"/>
</g>
<rect x="14.75" y="0.75" width="22.5" height="22.5" rx="11.25" stroke="#BBBBBB" stroke-width="1.5"/>
<path d="M5.83845 40.418H0.816969V33.4746H5.83845V40.418ZM2.09431 39.3809H4.54353V34.5H2.09431V39.3809ZM8.7447 43.0312H7.44392V32.4492H8.7447V43.0312ZM10.3795 37.6172H8.45173V36.5215H10.3795V37.6172ZM19.6194 43.0605H18.3011V32.4492H19.6194V43.0605ZM13.9124 33.2227C14.4436 33.2227 14.9183 33.377 15.3362 33.6855C15.7542 33.9902 16.0804 34.4258 16.3147 34.9922C16.5491 35.5547 16.6663 36.2109 16.6663 36.9609C16.6663 37.7148 16.5491 38.375 16.3147 38.9414C16.0804 39.5039 15.7542 39.9395 15.3362 40.248C14.9183 40.5566 14.4436 40.7109 13.9124 40.7109C13.3772 40.7109 12.9007 40.5566 12.4827 40.248C12.0647 39.9395 11.7366 39.5039 11.4983 38.9414C11.264 38.375 11.1468 37.7148 11.1468 36.9609C11.1468 36.2109 11.264 35.5547 11.4983 34.9922C11.7366 34.4258 12.0647 33.9902 12.4827 33.6855C12.9007 33.377 13.3772 33.2227 13.9124 33.2227ZM13.9124 34.3945C13.6155 34.3906 13.3518 34.4922 13.1214 34.6992C12.8948 34.9023 12.719 35.1973 12.594 35.584C12.469 35.9707 12.4065 36.4297 12.4065 36.9609C12.4065 37.4922 12.469 37.9531 12.594 38.3438C12.719 38.7305 12.8948 39.0254 13.1214 39.2285C13.3518 39.4277 13.6155 39.5273 13.9124 39.5273C14.2093 39.5273 14.471 39.4277 14.6975 39.2285C14.9241 39.0254 15.0999 38.7305 15.2249 38.3438C15.3499 37.9531 15.4124 37.4922 15.4124 36.9609C15.4124 36.4297 15.3499 35.9707 15.2249 35.584C15.0999 35.1973 14.9241 34.9023 14.6975 34.6992C14.4749 34.4922 14.2132 34.3906 13.9124 34.3945ZM30.3711 43.0312H29.123V32.4492H30.3711V43.0312ZM27.4004 37.5293H25.8418V36.3574H27.4004V37.5293ZM28.2559 42.5156H27.0195V32.6719H28.2559V42.5156ZM26.1055 34.7578H21.2598V33.7031H26.1055V34.7578ZM21.0547 39.4688C21.9922 39.4688 22.9219 39.4531 23.8438 39.4219C24.7695 39.3867 25.5898 39.3203 26.3047 39.2227L26.3926 40.166C25.6582 40.3145 24.8379 40.416 23.9316 40.4707C23.0293 40.5215 22.1191 40.5469 21.2012 40.5469L21.0547 39.4688ZM23.1816 39.7734H22.0039V34.3711H23.1816V39.7734ZM25.3672 39.7734H24.1719V34.3711H25.3672V39.7734ZM40.3376 43.0605H39.0193V32.4492H40.3376V43.0605ZM34.6306 33.2227C35.1618 33.2227 35.6364 33.377 36.0544 33.6855C36.4724 33.9902 36.7985 34.4258 37.0329 34.9922C37.2673 35.5547 37.3845 36.2109 37.3845 36.9609C37.3845 37.7148 37.2673 38.375 37.0329 38.9414C36.7985 39.5039 36.4724 39.9395 36.0544 40.248C35.6364 40.5566 35.1618 40.7109 34.6306 40.7109C34.0954 40.7109 33.6189 40.5566 33.2009 40.248C32.7829 39.9395 32.4548 39.5039 32.2165 38.9414C31.9821 38.375 31.865 37.7148 31.865 36.9609C31.865 36.2109 31.9821 35.5547 32.2165 34.9922C32.4548 34.4258 32.7829 33.9902 33.2009 33.6855C33.6189 33.377 34.0954 33.2227 34.6306 33.2227ZM34.6306 34.3945C34.3337 34.3906 34.07 34.4922 33.8396 34.6992C33.613 34.9023 33.4372 35.1973 33.3122 35.584C33.1872 35.9707 33.1247 36.4297 33.1247 36.9609C33.1247 37.4922 33.1872 37.9531 33.3122 38.3438C33.4372 38.7305 33.613 39.0254 33.8396 39.2285C34.07 39.4277 34.3337 39.5273 34.6306 39.5273C34.9275 39.5273 35.1892 39.4277 35.4157 39.2285C35.6423 39.0254 35.8181 38.7305 35.9431 38.3438C36.0681 37.9531 36.1306 37.4922 36.1306 36.9609C36.1306 36.4297 36.0681 35.9707 35.9431 35.584C35.8181 35.1973 35.6423 34.9023 35.4157 34.6992C35.1931 34.4922 34.9314 34.3906 34.6306 34.3945ZM45.6166 35.4492C45.6166 36.2461 45.4916 37.0156 45.2416 37.7578C44.9955 38.4961 44.644 39.1543 44.1869 39.7324C43.7299 40.3066 43.1967 40.7383 42.5873 41.0273L41.8315 40.002C42.3744 39.748 42.853 39.3789 43.267 38.8945C43.6811 38.4102 43.9994 37.8691 44.2221 37.2715C44.4447 36.6699 44.5561 36.0625 44.5561 35.4492V34.0547H45.6166V35.4492ZM45.8803 35.4492C45.8803 36.0391 45.9897 36.6172 46.2084 37.1836C46.4311 37.75 46.7475 38.2598 47.1576 38.7129C47.5717 39.1621 48.0541 39.5039 48.6049 39.7383L47.8959 40.7637C47.2709 40.4863 46.728 40.0781 46.267 39.5391C45.8061 39 45.4545 38.3789 45.2123 37.6758C44.9701 36.9688 44.849 36.2266 44.849 35.4492V34.0547H45.8803V35.4492ZM48.2006 34.5645H42.2299V33.498H48.2006V34.5645ZM50.6967 43.0312H49.3783V32.4492H50.6967V43.0312Z" fill="#BBBBBB"/>
<defs>
<clipPath id="clip0_1590_13682">
<rect x="14" width="24" height="24" rx="12" fill="white"/>
</clipPath>
</defs>
</svg>
