<svg width="194" height="162" viewBox="0 0 194 162" fill="none" xmlns="http://www.w3.org/2000/svg">
<rect width="194" height="162" rx="8" fill="#EBEBEB"/>
<path d="M80.2657 88.1733C87.6369 88.1734 95.1382 92.9125 97.8736 99.494C100.609 92.9125 108.11 88.1734 115.481 88.1733H135.607L132.069 94.1872H116.943C111.041 94.1872 104.087 98.9456 104.087 104.815H91.6607C91.6607 98.9456 84.7063 94.1872 78.8038 94.1872H63.678L60.1403 88.1733H80.2657Z" fill="#D1D1D6"/>
<path d="M80.5023 86.2447V58H86.8128V68.9869H89.4576V58H90.0168C93.2188 58 95.8145 60.9 95.8145 64.4773V86.3484H89.4576V74.9468H86.8128V86.2447H80.5023Z" fill="#D1D1D6"/>
<path d="M79.1991 79.0508C74.1054 77.1843 72.0636 72.7252 72.0855 68.2662V68.1625H77.9257V62.3553H72.0855V58H66.1136V62.3553H60.2295V68.1625H66.1136V68.2662C66.0697 73.0622 64.0717 77.6768 59 79.8804L61.8542 85.3765C65.433 83.8469 67.8042 81.073 69.2093 77.6509C70.6145 80.7619 72.9418 83.2506 76.3888 84.5987L79.1991 79.0508Z" fill="#D1D1D6"/>
<path fill-rule="evenodd" clip-rule="evenodd" d="M134.333 82.5212H121.208V90.8841H114.04V82.5212H100.864V64.4796C100.864 60.9011 103.782 58 107.38 58H134.333V82.5212ZM108.033 76.4853H127.114V64.1977H108.033V76.4853Z" fill="#D1D1D6"/>
</svg>
