<svg width="96" height="80" viewBox="0 0 96 80" fill="none" xmlns="http://www.w3.org/2000/svg">
<rect width="96" height="80" rx="8" fill="#EBEBEB"/>
<path d="M36.4706 44.5784C41.4586 44.5784 46.5348 47.7854 48.3858 52.2391C50.2369 47.7854 55.313 44.5784 60.301 44.5784H73.9199L71.5259 48.648H61.2903C57.2961 48.648 52.5901 51.868 52.5901 55.8401H44.1815C44.1815 51.868 39.4755 48.648 35.4813 48.648H25.2457L22.8517 44.5784H36.4706Z" fill="#D1D1D6"/>
<path d="M36.6306 43.2734V24.1602H40.901V31.595H42.6907V24.1602H43.0691C45.2359 24.1602 46.9924 26.1226 46.9924 28.5433V43.3435H42.6907V35.6281H40.901V43.2734H36.6306Z" fill="#D1D1D6"/>
<path d="M35.7488 38.4052C32.3019 37.1421 30.9202 34.1247 30.935 31.1073V31.0371H34.8871V27.1074H30.935V24.1602H26.8938V27.1074H22.9121V31.0371H26.8938V31.1073C26.8641 34.3528 25.5121 37.4754 22.0801 38.9666L24.0115 42.6858C26.4333 41.6507 28.0379 39.7736 28.9887 37.4579C29.9396 39.5631 31.5145 41.2472 33.8471 42.1595L35.7488 38.4052Z" fill="#D1D1D6"/>
<path fill-rule="evenodd" clip-rule="evenodd" d="M73.0577 40.7536H64.1761V46.4128H59.3254V40.7536H50.4096V28.5449C50.4096 26.1233 52.3837 24.1602 54.8189 24.1602H73.0577V40.7536ZM55.2603 36.6691H68.1728V28.3542H55.2603V36.6691Z" fill="#D1D1D6"/>
</svg>
