<svg width="24" height="24" viewBox="0 0 24 24" fill="none" xmlns="http://www.w3.org/2000/svg">
<path d="M11.9049 3.04271C11.9348 2.95057 12.0652 2.95057 12.0951 3.04271L14.0543 9.07249C14.0677 9.1137 14.1061 9.14159 14.1494 9.14159H20.4895C20.5864 9.14159 20.6267 9.26555 20.5483 9.32249L15.419 13.0491C15.384 13.0746 15.3693 13.1197 15.3827 13.1609L17.3419 19.1907C17.3718 19.2828 17.2664 19.3594 17.188 19.3025L12.0588 15.5759C12.0237 15.5504 11.9763 15.5504 11.9412 15.5759L6.81198 19.3025C6.7336 19.3594 6.62816 19.2828 6.65809 19.1907L8.61729 13.1609C8.63068 13.1197 8.61601 13.0746 8.58096 13.0491L3.45172 9.32249C3.37335 9.26555 3.41362 9.14159 3.5105 9.14159H9.85059C9.89391 9.14159 9.93231 9.1137 9.9457 9.07249L11.9049 3.04271Z" fill="#DADADA" stroke="#DADADA" stroke-width="1.5" stroke-linecap="round"/>
</svg>
