<svg width="24" height="24" viewBox="0 0 24 24" fill="none" xmlns="http://www.w3.org/2000/svg">
<path d="M11.9832 14.6231C15.0132 14.6153 17.5896 16.0066 18.5366 19.0014C16.6278 20.1651 14.381 20.6133 11.9832 20.6074C9.58535 20.6133 7.3385 20.1651 5.42969 19.0014C6.37779 16.0033 8.94983 14.6153 11.9832 14.6231Z" stroke="black" stroke-width="1.5" stroke-linecap="square"/>
<path d="M6.59375 13.7735C4.46939 13.768 2.66309 14.7434 1.99915 16.8431C2.72384 17.2849 3.51803 17.5796 4.36088 17.7563" stroke="black" stroke-width="1.5" stroke-linecap="square"/>
<path d="M17.4062 13.7735C19.5306 13.768 21.3369 14.7434 22.0008 16.8431C21.2762 17.2849 20.482 17.5796 19.6391 17.7563" stroke="black" stroke-width="1.5" stroke-linecap="square"/>
<circle cx="11.9969" cy="7.49102" r="4.09844" stroke="black" stroke-width="1.5" stroke-linecap="square"/>
<path d="M16.4838 6.05132C16.7734 5.95345 17.0836 5.90039 17.4063 5.90039C18.9969 5.90039 20.2863 7.1898 20.2863 8.78038C20.2863 10.3709 18.9969 11.6604 17.4063 11.6604C16.6333 11.6604 15.9314 11.3558 15.4141 10.8601" stroke="black" stroke-width="1.5" stroke-linecap="square"/>
<path d="M7.24688 5.97542C7.03617 5.92634 6.81658 5.90039 6.59092 5.90039C5.00035 5.90039 3.71094 7.1898 3.71094 8.78038C3.71094 10.3709 5.00035 11.6604 6.59092 11.6604C7.28414 11.6604 7.92016 11.4154 8.41716 11.0074" stroke="black" stroke-width="1.5" stroke-linecap="square"/>
</svg>
