<svg width="24" height="24" viewBox="0 0 24 24" fill="none" xmlns="http://www.w3.org/2000/svg">
<path d="M11.6772 6.99L14.0012 4.667C14.7084 3.9598 15.6676 3.5625 16.6677 3.5625C17.1629 3.5625 17.6533 3.66004 18.1108 3.84955C18.5683 4.03906 18.984 4.31683 19.3342 4.667C19.6844 5.01717 19.9621 5.43288 20.1517 5.8904C20.3412 6.34792 20.4387 6.83829 20.4387 7.3335C20.4387 7.82872 20.3412 8.31908 20.1517 8.7766C19.9621 9.23412 19.6844 9.64983 19.3342 10L17.0112 12.324M6.99121 11.677L4.66721 14C3.95988 14.7073 3.5625 15.6667 3.5625 16.667C3.5625 17.6673 3.95988 18.6267 4.66721 19.334C5.37454 20.0413 6.33389 20.4387 7.33421 20.4387C8.33453 20.4387 9.29387 20.0413 10.0012 19.334L12.3242 17.01M13.9992 10L9.99921 14" stroke="#5C5C5C" stroke-width="2" stroke-linecap="square"/>
</svg>
