<svg width="56" height="34" viewBox="0 0 56 34" fill="none" xmlns="http://www.w3.org/2000/svg">
<g clip-path="url(#clip0_1011_799)">
<path d="M15.5455 21.9141C20.7337 21.9141 26.0102 25.1051 28.1799 29.6089C28.2726 29.8013 28.5613 29.8013 28.6539 29.6089C30.8236 25.1051 36.1001 21.9141 41.2884 21.9141H55.5782C55.7651 21.9141 55.8809 22.1151 55.7868 22.2748L53.484 26.1635C53.4406 26.2367 53.3614 26.2817 53.276 26.2817H42.3571C38.1235 26.2817 33.1498 29.6086 32.964 33.7606C32.9581 33.8927 32.8506 34.0004 32.7173 34.0004H24.1166C23.9833 34.0004 23.8758 33.8927 23.8699 33.7606C23.6841 29.6086 18.7103 26.2817 14.4768 26.2817H3.55798C3.47238 26.2817 3.39319 26.2367 3.34984 26.1635L1.04728 22.2748C0.952772 22.1151 1.0688 21.9141 1.25542 21.9141H15.5455Z" fill="white"/>
<path d="M15.9592 20.513C15.8259 20.513 15.7178 20.4057 15.7178 20.2735V0.239436C15.7178 0.107199 15.8259 0 15.9592 0H20.0894C20.2227 0 20.3308 0.1072 20.3308 0.239437V7.73993C20.3308 7.87215 20.4389 7.97937 20.5722 7.97937H22.0228C22.1561 7.97937 22.2642 7.87215 22.2642 7.73993V0.239437C22.2642 0.107199 22.3723 0 22.5056 0H22.673C25.0136 0 26.9111 2.10612 26.9111 4.70415V20.3488C26.9111 20.481 26.803 20.5882 26.6697 20.5882H22.5056C22.3723 20.5882 22.2642 20.481 22.2642 20.3488V12.5472C22.2642 12.415 22.1561 12.3078 22.0228 12.3078H20.5722C20.4389 12.3078 20.3308 12.415 20.3308 12.5472V20.2735C20.3308 20.4057 20.2227 20.513 20.0894 20.513H15.9592Z" fill="white"/>
<path d="M14.6431 15.5285C14.7083 15.4006 14.6456 15.2449 14.5115 15.1916C10.974 13.7834 9.54978 10.6196 9.56547 7.45586C9.56547 7.4143 9.59945 7.38059 9.64136 7.38059H13.5933C13.7266 7.38059 13.8346 7.27337 13.8346 7.14115V3.40254C13.8346 3.2703 13.7266 3.1631 13.5933 3.1631H9.80685C9.67351 3.1631 9.56547 3.0559 9.56547 2.92366V0.239437C9.56547 0.1072 9.45738 0 9.32409 0H5.44136C5.30802 0 5.19998 0.1072 5.19998 0.239437V2.92366C5.19998 3.0559 5.09189 3.1631 4.9586 3.1631H1.14005C1.00674 3.1631 0.898671 3.2703 0.898671 3.40254V7.14115C0.898671 7.27337 1.00674 7.38059 1.14005 7.38059H5.12404C5.16599 7.38059 5.19998 7.4143 5.19998 7.45586C5.16855 10.8641 3.76955 14.1462 0.236136 15.7851C0.109537 15.8438 0.0544858 15.9953 0.118817 16.1183L1.98315 19.6849C2.04134 19.7962 2.17653 19.8444 2.2916 19.7926C4.61519 18.7452 6.22082 16.9682 7.23901 14.7818C7.32783 14.591 7.60947 14.586 7.70598 14.7731C8.71972 16.7384 10.2854 18.3168 12.5075 19.2359C12.6224 19.2834 12.7541 19.2334 12.8102 19.1232L14.6431 15.5285Z" fill="white"/>
<path fill-rule="evenodd" clip-rule="evenodd" d="M55.0683 17.5693C55.0683 17.7015 54.9602 17.8087 54.8269 17.8087H45.7151C45.5818 17.8087 45.4737 17.9159 45.4737 18.0482V23.6429C45.4737 23.7751 45.3657 23.8824 45.2323 23.8824H40.4752C40.3419 23.8824 40.2339 23.7751 40.2339 23.6429V18.0482C40.2339 17.9159 40.1258 17.8087 39.9925 17.8087H30.8439C30.7106 17.8087 30.6025 17.7015 30.6025 17.5693V4.70588C30.6025 2.10691 32.735 2.43428e-05 35.3656 0H54.8269C54.9602 0 55.0683 0.1072 55.0683 0.239437V17.5693ZM35.8425 13.1857C35.8425 13.3179 35.9506 13.4251 36.0839 13.4251H49.5499C49.6831 13.4251 49.7913 13.3179 49.7913 13.1857V4.74059C49.7913 4.60835 49.6831 4.50115 49.5499 4.50115H36.0839C35.9506 4.50115 35.8425 4.60835 35.8425 4.74059V13.1857Z" fill="white"/>
</g>
<defs>
<clipPath id="clip0_1011_799">
<rect width="56" height="34" fill="white"/>
</clipPath>
</defs>
</svg>
