<svg width="233" height="104" viewBox="0 0 233 104" fill="none" xmlns="http://www.w3.org/2000/svg">
<g opacity="0.15" clip-path="url(#clip0_972_11649)">
<path d="M97.5953 33.5146C105.47 33.5146 113.479 38.395 116.773 45.2833C116.913 45.5775 117.351 45.5775 117.492 45.2833C120.785 38.395 128.794 33.5146 136.669 33.5146H158.359C158.643 33.5146 158.819 33.8222 158.676 34.0663L155.181 40.0138C155.115 40.1258 154.994 40.1945 154.865 40.1945H138.291C131.866 40.1945 124.316 45.2828 124.034 51.6328C124.025 51.8349 123.862 51.9997 123.66 51.9997H110.605C110.403 51.9997 110.239 51.8349 110.231 51.6328C109.949 45.2828 102.399 40.1945 95.9733 40.1945H79.4C79.2701 40.1945 79.1499 40.1258 79.0841 40.0138L75.5891 34.0663C75.4456 33.8222 75.6218 33.5146 75.905 33.5146H97.5953Z" fill="#897767"/>
<path d="M98.2248 31.3728C98.0225 31.3728 97.8584 31.2088 97.8584 31.0066V0.366196C97.8584 0.163952 98.0225 0 98.2248 0H104.494C104.696 0 104.86 0.163952 104.86 0.366197V11.8375C104.86 12.0398 105.024 12.2037 105.227 12.2037H107.429C107.631 12.2037 107.795 12.0398 107.795 11.8375V0.366197C107.795 0.163952 107.959 0 108.161 0H108.415C111.968 0 114.848 3.22113 114.848 7.19459V31.1217C114.848 31.3239 114.684 31.4879 114.482 31.4879H108.161C107.959 31.4879 107.795 31.3239 107.795 31.1217V19.1898C107.795 18.9876 107.631 18.8236 107.429 18.8236H105.227C105.024 18.8236 104.86 18.9876 104.86 19.1898V31.0066C104.86 31.2088 104.696 31.3728 104.494 31.3728H98.2248Z" fill="#897767"/>
<path d="M96.2264 23.7494C96.3254 23.5539 96.2302 23.3158 96.0267 23.2342C90.6573 21.0805 88.4955 16.2418 88.5193 11.4031C88.5193 11.3395 88.5709 11.288 88.6345 11.288H94.633C94.8353 11.288 94.9993 11.124 94.9993 10.9218V5.20388C94.9993 5.00164 94.8353 4.83768 94.633 4.83768H88.8857C88.6833 4.83768 88.5193 4.67373 88.5193 4.47149V0.366197C88.5193 0.163952 88.3553 0 88.1529 0H82.2595C82.0571 0 81.8931 0.163952 81.8931 0.366197V4.47149C81.8931 4.67373 81.7291 4.83768 81.5268 4.83768H75.7307C75.5284 4.83768 75.3644 5.00164 75.3644 5.20388V10.9218C75.3644 11.124 75.5284 11.288 75.7307 11.288H81.7779C81.8416 11.288 81.8931 11.3395 81.8931 11.4031C81.8454 16.6157 79.722 21.6353 74.3587 24.1419C74.1666 24.2317 74.083 24.4634 74.1807 24.6516L77.0105 30.1064C77.0988 30.2766 77.304 30.3503 77.4786 30.271C81.0055 28.6691 83.4426 25.9514 84.9881 22.6075C85.1229 22.3156 85.5504 22.3081 85.6969 22.5942C87.2356 25.6 89.6121 28.0139 92.985 29.4195C93.1593 29.4922 93.3592 29.4157 93.4444 29.2473L96.2264 23.7494Z" fill="#897767"/>
<path fill-rule="evenodd" clip-rule="evenodd" d="M157.587 26.8707C157.587 27.0729 157.423 27.2369 157.22 27.2369H143.39C143.188 27.2369 143.024 27.4008 143.024 27.6031V36.1598C143.024 36.362 142.86 36.526 142.657 36.526H135.437C135.234 36.526 135.07 36.362 135.07 36.1598V27.6031C135.07 27.4008 134.906 27.2369 134.704 27.2369H120.818C120.615 27.2369 120.451 27.0729 120.451 26.8707V7.19723C120.451 3.22234 123.688 3.72302e-05 127.681 0H157.22C157.423 0 157.587 0.163952 157.587 0.366197V26.8707ZM128.405 20.1663C128.405 20.3685 128.569 20.5325 128.771 20.5325H149.211C149.413 20.5325 149.577 20.3685 149.577 20.1663V7.25031C149.577 7.04807 149.413 6.88411 149.211 6.88411H128.771C128.569 6.88411 128.405 7.04807 128.405 7.25031V20.1663Z" fill="#897767"/>
</g>
<path d="M14.2773 81.1602V87.9375H17.0898V89.4609H14.2773V98.6992H12.4219V81.1602H14.2773ZM9.57031 82.8398V84.3438H3.24219V92.8008C6.18164 92.791 8.38867 92.6641 10.8789 92.2148L11.1133 93.7773C8.37891 94.2656 6.05469 94.3633 2.79297 94.3438H1.38672V82.8398H9.57031ZM33.9258 90.7695V92.2734H17.9102V90.7695H33.9258ZM32.2852 96.7852V98.2891H20V93.5234H21.8555V96.7852H32.2852ZM31.9141 81.6875V86.1797H21.7969V87.8984H32.2656V89.3242H19.9609V84.832H30.0586V83.1523H19.9219V81.6875H31.9141ZM56.0547 89.793V91.2969H40.0977V89.793H47.1484V87.8789H42.0898V81.8633H54.1016V83.3477H43.9453V86.3555H54.2773V87.8789H49.0039V89.793H56.0547ZM54.1211 92.8398V98.7578H52.2852V94.3438H41.875V92.8398H54.1211ZM63.6914 85.6133C63.6914 88.8164 65.4883 92 68.1641 93.2109L67.0312 94.6953C65.0391 93.6992 63.5449 91.7168 62.7734 89.3242C62.002 91.8438 60.4688 93.9727 58.457 95.0273L57.2852 93.5234C60 92.2344 61.8164 88.8555 61.8164 85.6133V82.625H63.6914V85.6133ZM71.9727 81.1602V98.6992H70.1367V88.4844H66.2305V86.9805H70.1367V81.1602H71.9727ZM95.5664 94.9297V96.4727H79.5508V94.9297H86.6016V90.8867H81.3867V82.5664H93.6523V90.8867H88.4375V94.9297H95.5664ZM83.1836 84.0508V89.4219H91.8359V84.0508H83.1836ZM111.348 81.1797V91.1406H109.492V81.1797H111.348ZM111.348 92.0195V98.4453H99.8438V92.0195H111.348ZM101.68 93.5039V96.9414H109.531V93.5039H101.68ZM101.855 82.0586C104.531 82.0586 106.504 83.7383 106.504 86.1992C106.504 88.6016 104.531 90.3008 101.855 90.3008C99.1797 90.3008 97.1875 88.6016 97.1875 86.1992C97.1875 83.7383 99.1797 82.0586 101.855 82.0586ZM101.855 83.6211C100.195 83.6211 99.0039 84.6367 99.0039 86.1992C99.0039 87.7031 100.195 88.7383 101.855 88.7383C103.496 88.7383 104.688 87.7031 104.688 86.1992C104.688 84.6367 103.496 83.6211 101.855 83.6211ZM128.301 89.2266V90.7109H123.008V94.9883H130.137V96.5117H114.121V94.9883H121.172V90.7109H116.113V82.5078H128.145V84.0117H117.969V89.2266H128.301ZM150.371 85.6328V87.1172H138.379V81.8047H150.195V83.3086H140.234V85.6328H150.371ZM152.246 88.3672V89.8711H145.176V91.4141H150.234V95.4961H140.039V97.0391H150.723V98.4844H138.223V94.168H148.398V92.8008H138.203V91.4141H143.34V89.8711H136.289V88.3672H152.246ZM168.145 81.1602V98.6992H166.309V89.2852H163.105V87.7422H166.309V81.1602H168.145ZM162.07 82.7422V88.9922H156.074V92.9766C158.867 92.9668 161.016 92.8691 163.457 92.4297L163.613 93.9531C160.996 94.4219 158.691 94.5195 155.605 94.5391H154.219V87.4883H160.273V84.2461H154.18V82.7422H162.07ZM174.785 81.4336V82.957H182.891V81.4336H184.746V87.2344H179.707V88.7578H186.816V90.2422H170.859V88.7578H177.891V87.2344H172.949V81.4336H174.785ZM174.785 85.8281H182.891V84.3242H174.785V85.8281ZM184.805 91.5117V95.5938H174.609V97.0586H185.293V98.4844H172.793V94.2656H182.969V92.8984H172.773V91.5117H184.805ZM202.051 81.1602V88.2695H204.59V89.793H202.051V98.6602H200.195V81.1602H202.051ZM193.418 83.0352C193.418 87.4102 192.617 91.3945 189.453 94.7734L187.988 93.7383C190.547 91.082 191.475 88.0645 191.66 84.5586H188.613V83.0352H193.418ZM198.242 83.0352C198.242 87.4688 197.695 92.1172 194.473 95.9258L192.988 94.9102C195.586 91.873 196.367 88.2988 196.504 84.5586H193.984V83.0352H198.242ZM221.445 94.9297V96.4727H205.43V94.9297H209.258V90.3594C207.822 89.5684 206.953 88.3086 206.953 86.7461C206.953 83.9922 209.648 82.1758 213.398 82.1758C217.168 82.1758 219.863 83.9922 219.863 86.7461C219.863 88.2891 219.023 89.5293 217.617 90.3203V94.9297H221.445ZM213.398 83.6602C210.645 83.6602 208.75 84.8516 208.75 86.7461C208.75 88.6211 210.645 89.8516 213.398 89.8516C216.133 89.8516 218.066 88.6211 218.066 86.7461C218.066 84.8516 216.133 83.6602 213.398 83.6602ZM211.094 94.9297H215.742V91.0234C215.029 91.209 214.238 91.2969 213.398 91.2969C212.578 91.2969 211.797 91.209 211.094 91.043V94.9297ZM225.586 92.8008C225.605 90.2422 226.367 89.4609 227.656 88.6602C228.477 88.1523 229.102 87.4492 229.102 86.4141C229.102 85.1836 228.164 84.4219 226.992 84.4219C225.938 84.4219 224.922 85.0664 224.824 86.5117H222.715C222.793 84.0312 224.668 82.6641 226.992 82.6641C229.531 82.6641 231.23 84.1875 231.23 86.4141C231.23 87.9766 230.488 89.0312 229.238 89.793C228.066 90.4961 227.617 91.2188 227.578 92.8008V92.918H225.586V92.8008ZM226.66 97.1367C225.898 97.1367 225.254 96.5117 225.273 95.75C225.254 94.9883 225.898 94.3633 226.66 94.3633C227.402 94.3633 228.047 94.9883 228.047 95.75C228.047 96.5117 227.402 97.1367 226.66 97.1367Z" fill="#C6BBB3"/>
<defs>
<clipPath id="clip0_972_11649">
<rect width="85" height="52" fill="white" transform="translate(74)"/>
</clipPath>
</defs>
</svg>
