<svg width="144" height="48" viewBox="0 0 144 48" fill="none" xmlns="http://www.w3.org/2000/svg">
<rect x="0.5" y="0.5" width="143" height="47" rx="7.5" fill="white"/>
<rect x="0.5" y="0.5" width="143" height="47" rx="7.5" stroke="#EAE5E2"/>
<path d="M28.6006 15L33.5 19.8994L20.3994 33L15.5046 32.9954L15.5 28.1006L28.6006 15Z" stroke="#5C5C5C" stroke-width="1.5" stroke-linecap="square"/>
<path d="M32.8212 32.9947L15.5039 32.9941" stroke="#5C5C5C" stroke-width="1.5" stroke-linecap="square"/>
<path d="M63.4414 29.4199H49.1328V28.2422H63.4414V29.4199ZM62.0703 18.5215H50.3984V17.3789H62.0703V18.5215ZM62.0352 25.1133H50.4336V23.9883H62.0352V25.1133ZM54.248 24.1289H52.877V18.416H54.248V24.1289ZM59.5918 24.1289H58.2383V18.416H59.5918V24.1289ZM78.98 29.4902H64.6715V28.3301H78.98V29.4902ZM72.4586 28.8398H71.105V24.9727H72.4586V28.8398ZM77.1695 21.6855H67.8355V24.8496H66.4644V20.5605H75.816V18.0996H66.4293V16.957H77.1695V21.6855ZM77.5386 25.377H66.4644V24.2344H77.5386V25.377ZM93.13 23.918H91.7413V15.7969H93.13V23.918ZM93.13 28.4004H84.3058V30.791H82.9523V27.3633H91.7589V25.7812H82.8995V24.6738H93.13V28.4004ZM93.7277 31.248H82.9523V30.123H93.7277V31.248ZM89.3683 17.9766H80.9132V16.8691H89.3683V17.9766ZM80.4738 22.2129C82.1495 22.2129 83.8312 22.1777 85.5187 22.1074C87.2062 22.0371 88.7472 21.9199 90.1417 21.7559L90.212 22.7754C88.7824 22.9863 87.2326 23.1357 85.5626 23.2236C83.8927 23.3115 82.255 23.3555 80.6495 23.3555L80.4738 22.2129ZM83.8136 22.7227H82.4777V17.3789H83.8136V22.7227ZM87.7863 22.7227H86.4503V17.3789H87.7863V22.7227ZM113.203 27.4336H111.815V15.7969H113.203V27.4336ZM109.02 18.2051H100.723V17.0801H109.02V18.2051ZM100.283 23.8828C102.135 23.8711 103.814 23.8389 105.32 23.7861C106.825 23.7334 108.229 23.6367 109.53 23.4961L109.6 24.5332C108.252 24.7441 106.811 24.8848 105.276 24.9551C103.741 25.0254 102.135 25.0605 100.459 25.0605L100.283 23.8828ZM103.641 24.1113H102.305V18.0469H103.641V24.1113ZM107.42 24.1113H106.084V18.0469H107.42V24.1113ZM112.535 19.9277H109.143V18.7852H112.535V19.9277ZM112.535 22.8984H109.143V21.7383H112.535V22.8984ZM113.625 31.0898H103.131V29.9297H113.625V31.0898ZM104.52 30.6504H103.131V26.4668H104.52V30.6504ZM121.148 18.3809C121.148 19.2715 120.961 20.1123 120.586 20.9033C120.211 21.6943 119.686 22.3799 119.013 22.96C118.339 23.54 117.568 23.9824 116.701 24.2871L115.98 23.1973C116.765 22.9512 117.463 22.585 118.072 22.0986C118.681 21.6123 119.159 21.0469 119.505 20.4023C119.85 19.7578 120.023 19.084 120.023 18.3809V17.1504H121.148V18.3809ZM121.412 18.3809C121.412 19.0488 121.585 19.6875 121.931 20.2969C122.276 20.9062 122.754 21.4395 123.363 21.8965C123.973 22.3535 124.664 22.6992 125.437 22.9336L124.734 24.0234C123.867 23.7422 123.097 23.3262 122.423 22.7754C121.749 22.2246 121.222 21.5684 120.841 20.8066C120.46 20.0449 120.269 19.2363 120.269 18.3809V17.1504H121.412V18.3809ZM125.015 17.9766H116.367V16.8516H125.015V17.9766ZM128.689 24.252H127.318V15.7969H128.689V24.252ZM119.935 26.9238H127.318V25.0254H128.689V31.2129H118.564V25.0254H119.935V26.9238ZM127.318 30.0879V28.0312H119.935V30.0879H127.318Z" fill="#5C5C5C"/>
</svg>
