<svg width="24" height="24" viewBox="0 0 24 24" fill="none" xmlns="http://www.w3.org/2000/svg">
<path d="M12 15.6876C14.0366 15.6876 15.6876 14.0366 15.6876 12C15.6876 9.96347 14.0366 8.3125 12 8.3125C9.96347 8.3125 8.3125 9.96347 8.3125 12C8.3125 14.0366 9.96347 15.6876 12 15.6876Z" stroke="#5C5C5C" stroke-width="1.5" stroke-linecap="square"/>
<path d="M18.8029 18.7156L18.365 15.6753L21.2167 14.5345V9.46567L18.366 8.32522L18.8039 5.28442L14.4142 2.75L11.9997 4.64979L9.58512 2.75L5.19538 5.28442L5.63329 8.32471L2.78125 9.46567V14.5345L5.63429 15.6759L5.19646 18.7156L9.5862 21.25L11.9997 19.3511L14.4131 21.25L18.8029 18.7156Z" stroke="#5C5C5C" stroke-width="1.5" stroke-linecap="square"/>
</svg>
