<svg width="77" height="47" viewBox="0 0 77 47" fill="none" xmlns="http://www.w3.org/2000/svg">
<path d="M21.2657 30.1733C28.6369 30.1734 36.1382 34.9125 38.8736 41.494C41.609 34.9125 49.1103 30.1734 56.4815 30.1733H76.6069L73.0692 36.1872H57.9434C52.0409 36.1872 45.0866 40.9456 45.0866 46.8154H32.6607C32.6607 40.9456 25.7063 36.1872 19.8038 36.1872H4.67801L1.14027 30.1733H21.2657Z" fill="#7B6154"/>
<path d="M21.5023 28.2447V0H27.8128V10.9869H30.4576V0H31.0168C34.2188 0 36.8145 2.89997 36.8145 6.47726V28.3484H30.4576V16.9468H27.8128V28.2447H21.5023Z" fill="#7B6154"/>
<path d="M20.1991 21.0508C15.1054 19.1843 13.0636 14.7252 13.0855 10.2662V10.1625H18.9257V4.35534H13.0855V0H7.1136V4.35534H1.22951V10.1625H7.1136V10.2662C7.06969 15.0622 5.07173 19.6768 0 21.8804L2.85422 27.3765C6.43298 25.8469 8.80418 23.073 10.2093 19.6509C11.6145 22.7619 13.9418 25.2506 17.3888 26.5987L20.1991 21.0508Z" fill="#7B6154"/>
<path fill-rule="evenodd" clip-rule="evenodd" d="M75.3327 24.5212H62.2078V32.8841H55.0398V24.5212H41.8643V6.47963C41.8643 2.90105 44.7816 3.35181e-05 48.3801 0H75.3327V24.5212ZM49.0325 18.4853H68.1141V6.19773H49.0325V18.4853Z" fill="#7B6154"/>
</svg>
